<svg xmlns="http://www.w3.org/2000/svg" width="221.62" height="53.469"><path d="M.82 36.242v2.492h2.79v-2.492h.82v5.8h-.82v-2.623H.82v2.621H0v-5.8h.82zm6.4.627a2.644 2.644 0 0 1 1.97-.779c1.63 0 2.65 1.03 2.65 3 0 1.54-.62 3.092-2.72 3.092-2 0-2.65-1.406-2.65-3a3.381 3.381 0 0 1 .75-2.313zm.62 4.1a1.869 1.869 0 0 0 2.61 0 3.145 3.145 0 0 0 .53-1.887c0-1.319-.44-2.314-1.79-2.314-1.49 0-1.87 1.182-1.87 2.37a2.941 2.941 0 0 0 .52 1.828zm7.45 1.078V36.93h-1.98v-.685h4.75v.685h-1.97v5.117h-.8zm4.27-5.8h3.69v.685h-2.88v1.807h2.74v.674h-2.74v1.929h2.94v.707h-3.75v-5.8zm5.93 0h.81v5.087h2.74v.715h-3.55v-5.8zm5.9 4.109c.01.4.06 1.146 1.41 1.146 1.23 0 1.38-.745 1.38-1.034 0-.652-.53-.781-1.35-.983a5.2 5.2 0 0 1-1.6-.514 1.3 1.3 0 0 1-.61-1.139c0-1.182 1.13-1.7 2.24-1.7a2.32 2.32 0 0 1 1.65.571 1.428 1.428 0 0 1 .36.99h-.84a1.026 1.026 0 0 0-1.24-.884 1.077 1.077 0 0 0-1.31.939c0 .514.35.691 1.06.858a5.664 5.664 0 0 1 1.9.611 1.32 1.32 0 0 1 .59 1.159c0 1.027-.82 1.808-2.32 1.808a2.387 2.387 0 0 1-1.83-.659 1.813 1.813 0 0 1-.34-1.171h.85zm13.66-2.067a3.448 3.448 0 0 1-.71 2.419l1.4 1.341H44.6l-.77-.715a2.848 2.848 0 0 1-2.03.852 1.742 1.742 0 0 1-1.98-1.669 2.282 2.282 0 0 1 1.24-1.849 1.771 1.771 0 0 1-.68-1.336 1.339 1.339 0 0 1 1.58-1.276 1.613 1.613 0 0 1 1.22.36 1.083 1.083 0 0 1 .35.8 2.089 2.089 0 0 1-1.14 1.589l1.44 1.407a3.21 3.21 0 0 0 .44-1.921h.78zm-3.47.883a1.662 1.662 0 0 0-.91 1.32 1.1 1.1 0 0 0 1.25 1.019 1.861 1.861 0 0 0 1.38-.658zm1.08-1.927a.6.6 0 0 0-.68-.546.665.665 0 0 0-.73.593 1.558 1.558 0 0 0 .62.988 1.535 1.535 0 0 0 .79-1.04zM.82 47.519v3.593a1.427 1.427 0 0 0 1.61 1.616 1.433 1.433 0 0 0 1.58-1.648v-3.561h.79v3.577a2.348 2.348 0 0 1-.48 1.542 2.423 2.423 0 0 1-1.89.8 2.538 2.538 0 0 1-2.08-.923A2.27 2.27 0 0 1 0 51.054v-3.535h.82zm6.36 0h1.13l2.89 4.8v-4.8h.75v5.8h-1.04l-2.99-4.926v4.926h-.74v-5.8zm7.1 0h.81v5.8h-.81v-5.8zm8.5 5.8h-.97c-.12 0-.7.006-1.09.04s-.87.08-1.07.08c-1.4 0-2.53-.923-2.53-2.981a3.375 3.375 0 0 1 .73-2.289 2.652 2.652 0 0 1 1.97-.788c1.96 0 2.55 1.536 2.55 2.924a3 3 0 0 1-1.07 2.492 4.568 4.568 0 0 1 1.05-.114h.43v.636zm-3.05-.507c1.68 0 1.81-1.77 1.81-2.368 0-1.5-.65-2.4-1.79-2.4-1.63 0-1.77 1.8-1.77 2.43 0 .958.35 2.345 1.75 2.345zm5.64-5.3v3.593a1.427 1.427 0 0 0 1.61 1.616 1.436 1.436 0 0 0 1.59-1.648v-3.554h.79v3.577a2.348 2.348 0 0 1-.48 1.542 2.442 2.442 0 0 1-1.9.8 2.549 2.549 0 0 1-2.08-.923 2.286 2.286 0 0 1-.34-1.461v-3.535h.81zm6.21 0h3.69v.682h-2.88v1.808h2.74v.675h-2.74v1.929h2.94v.713h-3.75v-5.8zm11.36 5.8h-.9l-2.09-5.8h.91l1.66 4.958 1.77-4.958h.82zm3.77-5.8h3.69v.682h-2.88v1.808h2.74v.675h-2.74v1.929h2.94v.713h-3.75v-5.8zm5.95 0h1.13l2.89 4.8v-4.8h.75v5.8h-1.04l-2.99-4.926v4.933h-.74v-5.8zm7.95 0v3.593a1.427 1.427 0 0 0 1.61 1.616 1.436 1.436 0 0 0 1.59-1.648v-3.554h.79v3.577a2.348 2.348 0 0 1-.48 1.542 2.442 2.442 0 0 1-1.9.8 2.561 2.561 0 0 1-2.08-.923 2.286 2.286 0 0 1-.34-1.461v-3.535h.81zm6.21 0h3.69v.682h-2.88v1.808h2.74v.675h-2.74v1.929h2.94v.713h-3.75v-5.8zm6.48 4.107c.02.4.06 1.149 1.42 1.149a1.127 1.127 0 0 0 1.38-1.037c0-.651-.54-.778-1.36-.983a5.077 5.077 0 0 1-1.59-.511 1.3 1.3 0 0 1-.62-1.142c0-1.181 1.14-1.7 2.25-1.7a2.306 2.306 0 0 1 1.65.571 1.535 1.535 0 0 1 .36.992h-.85a1.025 1.025 0 0 0-1.24-.886 1.073 1.073 0 0 0-1.3.939c0 .512.34.69 1.06.857a5.534 5.534 0 0 1 1.89.613 1.318 1.318 0 0 1 .59 1.157c0 1.028-.81 1.808-2.32 1.808a2.406 2.406 0 0 1-1.83-.658 1.818 1.818 0 0 1-.34-1.173h.85zM95.72 8.113h-1.26l-2.93-8.13h1.27l2.34 6.946L97.6-.017h1.16zm-4.9 14.38h2.02l2.33 6.7 2.38-6.7h1.89v8.131h-1.12v-7.321l-2.71 7.321h-1.08l-2.61-7.275v7.275h-1.1v-8.131zm6.5 24.674a1.629 1.629 0 0 0-1.86-1.272 2.4 2.4 0 0 0-1.86.687 3.858 3.858 0 0 0-.88 2.611 4.2 4.2 0 0 0 .76 2.556 2.824 2.824 0 0 0 2.19.8 5.875 5.875 0 0 0 1.79-.259v-2.412h-1.88v-.933h3.02v4.008a9.081 9.081 0 0 1-2.93.5 3.943 3.943 0 0 1-2.99-1.013 4.319 4.319 0 0 1-1.16-3.1 4.532 4.532 0 0 1 1.77-3.761 4.339 4.339 0 0 1 2.3-.576 3.281 3.281 0 0 1 2.43.868 1.851 1.851 0 0 1 .55 1.3h-1.25zm15.87 6.213L221.62.885v-.9L113.19 52.476v.906z" fill="#fff" fill-rule="evenodd"/></svg>